<?xml version="1.0" encoding="UTF-8"?>
<svg width="59px" height="59px" viewBox="0 0 59 59" version="1.1" xmlns="http://www.w3.org/2000/svg" xmlns:xlink="http://www.w3.org/1999/xlink">
    <!-- Generator: Sketch 52.6 (67491) - http://www.bohemiancoding.com/sketch -->
    <!-- <title>分组 7</title> -->
    <desc>Created with Sketch.</desc>
    <g id="页面-1" stroke="none" stroke-width="1" fill="none" fill-rule="evenodd">
        <g id="样本资源监控" transform="translate(-40.000000, -498.000000)" fill="#0299E2">
            <g id="分组-5-copy" transform="translate(20.000000, 424.000000)">
                <g id="分组-3" transform="translate(20.000000, 69.000000)">
                    <g id="分组-7" transform="translate(0.000000, 5.000000)">
                        <circle id="椭圆形" fill-opacity="0.116310009" cx="29.5" cy="29.5" r="29.5"></circle>
                        <g id="ruku2" transform="translate(18.000000, 16.000000)" fill-rule="nonzero">
                            <path d="M22.6545759,23.994917 L17.3246855,23.994917 C16.5907846,23.994917 15.9922129,23.3963454 15.9922129,22.6624444 C15.9922129,21.9285435 16.5907846,21.3299718 17.3246855,21.3299718 L21.3221033,21.3299718 L21.3221033,8.73394159 L11.994795,2.91478384 L2.66748672,8.7495565 L2.66748672,12.0026635 C2.66748672,12.7365644 2.06891505,13.3351361 1.33501411,13.3351361 C0.601113182,13.3351361 0.00254148728,12.7365644 0.00254148728,12.0026635 L0.00254148728,8.00524563 C0.00254148728,7.54720816 0.23676519,7.11519555 0.627138035,6.87056193 L11.286919,0.208198849 C11.7189316,-0.0624596477 12.2654535,-0.0624596477 12.6974661,0.208198849 L23.3572471,6.87056193 C23.7476199,7.11519558 23.9870486,7.54200322 23.9818436,8.00524563 L23.9818436,22.6624444 C23.9870486,23.3963453 23.3884769,23.994917 22.6545759,23.994917 Z M8.76771292,19.9974992 L1.33501411,19.9974992 C0.601113182,19.9974992 0.00254148728,19.3989275 0.00254148728,18.6650266 C0.00254148728,17.9259207 0.601113182,17.3325539 1.33501411,17.3325539 L8.76771292,17.3325539 L7.05007242,15.6149135 C6.59723993,15.0840064 6.62846975,14.2980558 7.11773706,13.8035835 C7.61220932,13.3091112 8.39815996,13.2830864 8.92906701,13.7359189 L12.7911556,17.5980075 C13.1138638,17.8374361 13.3116527,18.217399 13.3272677,18.6233868 C13.3376776,19.0293745 13.1659135,19.4145424 12.8588203,19.6799959 L8.92906701,23.6097492 C8.61156378,23.9220474 8.16393626,24.0573767 7.72671868,23.9740971 C7.2895011,23.8856126 6.92515313,23.5889293 6.75859404,23.1777365 C6.55039519,22.6780593 6.66490457,22.1003075 7.05007242,21.7203446 L8.76771292,19.9974992 Z" id="形状"></path>
                        </g>
                    </g>
                </g>
            </g>
        </g>
    </g>
</svg>